<?xml version="1.0" encoding="UTF-8"?>
<svg xmlns="http://www.w3.org/2000/svg" viewBox="0 0 503.5 503.5">
  <g transform="translate(0,196.21)">
    <g id="a"/>
    <g id="b">
      <g>
        <path
          d="M267.85,16.94c-4.94-6-9.42-8.82-16.23-11.48C244.62,2.74,232.72,0,212.25,0s-32.39,2.73-39.38,5.45c-6.8,2.66-11.28,5.48-16.23,11.48-5.13,6.23-10.7,17.62-10.7,38.97s6.25,33.25,11.58,38.96c3.2,3.41,9.48,7.94,14.99,10.13,7.27,2.9,19.77,6.06,39.74,6.06s32.44-3.16,39.73-6.06c5.49-2.2,11.8-6.72,14.98-10.13,5.34-5.72,11.58-16.69,11.58-38.96s-5.57-32.75-10.69-38.97Zm-21.01,69.57c-5.98,5.87-16.04,9.36-34.59,9.36s-28.61-3.5-34.6-9.36c-8.75-8.56-9.45-25.38-9.45-30.9,0-15.08,2.98-24.78,7.86-30.53,6.01-7.06,14.41-9.8,36.19-9.8s30.18,2.74,36.18,9.8c4.88,5.75,7.86,15.45,7.86,30.53,0,5.53-.7,22.34-9.45,30.9Z"
          fill="#0074aa"/>
        <path
          d="M367.2,105.17c0,2.09-1.53,3.15-3.67,3.15h-13.74c-2.14,0-3.23-1.06-3.23-3.15V17.98c0-.78-.33-1.11-1.08-1.11h-45.64s0,0-.02,0h0c-2.77,0-3.93-1.17-3.93-3.91V6.39c0-2.77,1.17-3.94,3.91-3.94h114.16c2.75,0,3.92,1.18,3.92,3.94v6.56c0,2.74-1.16,3.92-3.93,3.92h-45.67c-.74,0-1.08,.33-1.08,1.09V105.17h0Z"
          fill="#0074aa"/>
        <path
          d="M449.45,105.18c0,2.47,1.21,3.71,3.6,3.71h13.03c2.39,0,3.6-1.25,3.6-3.71V5.9c0-2.47-1.22-3.72-3.6-3.72h-13.03c-2.39,0-3.6,1.25-3.6,3.72V105.18Z"
          fill="#0074aa"/>
        <path
          d="M108.48,99.48c7.16-6.45,8.63-15.19,8.63-22.09,0-7.66-2.62-15.02-7.54-19.74-4.5-4.62-9.94-7.79-23.67-9.91-18.59-2.87-47.12-5.94-52.15-7.3-6.39-1.73-11.01-4.2-11.39-10.8,.05-.73,.17-1.49,.37-2.28,.94-3.63,3.34-7.28,10.56-9.5,6.28-1.92,14.24-2.66,26.8-2.62,14.55,.05,24.04,.73,42.73,3.64,2.56,.4,2.83-1.85,3.14-3.41,.36-1.74,.7-4.68,.86-6.52,.25-3.05-.34-3.9-2.71-4.58C100.05,3.21,80.77,.01,58.49,0,27.01-.02,15.94,5.12,11.43,8.02,5.55,11.81,1.34,17.88,.3,26.21c-.71,5.66-.16,11.23,1.89,15.65,2.43,5.25,6.04,9.63,17.04,13.95,13.07,5.14,55.34,8.56,61.96,9.91,10.91,2.51,12.7,7.27,13.14,12.39,.2,2.33,.55,7.62-6.24,11.8-7.66,4.72-24.2,6.11-31.83,5.9,0,0-13.59-.04-27-1.46-13.16-1.39-21.67-2.72-23.31-2.69-2.03,.04-3.15,.83-3.5,3.55-.22,1.68-.56,3.83-.75,6.15-.31,3.79,.49,4.76,6.24,5.75,12.26,2.1,30.69,3.92,47.22,3.92l-.02,.03c9.99,0,40.24,.24,53.35-11.59Z"
          fill="#0074aa"/>
        <path
          d="M487.98,101.35v-.04c0-4.22,3.43-7.76,7.78-7.76s7.74,3.5,7.74,7.72v.04c0,4.23-3.43,7.76-7.78,7.76s-7.74-3.5-7.74-7.72Zm14.62-.04v-.04c0-3.8-2.94-6.86-6.84-6.86s-6.88,3.11-6.88,6.9v.04c0,3.8,2.94,6.86,6.84,6.86s6.88-3.11,6.88-6.9Zm-10.06-3.45c0-.49,.41-.9,.9-.9h2.77c1.11,0,1.97,.32,2.55,.9,.45,.45,.69,1.07,.69,1.8v.04c0,1.27-.64,2.08-1.67,2.51l1.35,1.63c.15,.19,.24,.37,.24,.62,0,.49-.41,.88-.84,.88-.37,0-.53-.11-.77-.41l-1.91-2.38h-1.48v1.89c0,.49-.43,.9-.92,.9s-.9-.41-.9-.9v-6.58Zm3.64,3.13c.92,0,1.42-.49,1.42-1.18v-.04c0-.79-.56-1.2-1.46-1.2h-1.78v2.42h1.82Z"
          fill="#0074aa"/>
      </g>
    </g>
  </g>
</svg>
